<svg width="25" height="24" viewBox="0 0 25 24" fill="none" xmlns="http://www.w3.org/2000/svg">
<path fill-rule="evenodd" clip-rule="evenodd" d="M10.5408 8.33673C8.76583 5.6795 9.95824 2.01189 13.086 1C15.0434 3.44302 14.2671 6.98318 11.5386 8.39888C11.4851 9.25198 11.4825 10.0547 11.5247 10.8098C12.1682 7.96952 15.2966 6.31444 18.052 7.53802L18.1986 7.60311C17.902 10.6766 14.7817 12.6624 11.8759 11.627L11.5787 11.5211C11.7294 13.0781 12.0768 14.4188 12.5583 15.5693C13.6132 12.9264 16.5833 11.5063 19.3324 12.3957L20.6071 12.8081L20.3546 13.5425C19.2806 16.6668 15.5418 17.9158 12.8381 16.1868C13.2293 16.9865 13.6875 17.6848 14.1872 18.2922C16.2527 20.8023 19.0844 21.8279 21.0442 22.002C21.3193 22.0264 21.5224 22.2692 21.498 22.5443C21.4736 22.8193 21.2308 23.0225 20.9557 22.9981C18.775 22.8043 15.6782 21.6779 13.4151 18.9276C12.8397 18.2284 12.3218 17.4287 11.8876 16.5188C9.41206 18.8375 5.30849 18.0581 3.84377 14.9602L3.50071 14.2346L4.70331 13.6978C7.16129 12.6008 10.0283 13.4675 11.4988 15.6152C11.0508 14.4533 10.7318 13.1326 10.5856 11.6371L10.3804 11.7011C7.25119 12.6768 4.05574 10.3294 4.05063 7.05112L4.78112 6.87278C7.38911 6.23604 9.91169 7.89605 10.5048 10.3561C10.4857 9.71257 10.4967 9.03979 10.5408 8.33673Z" fill="white"/>
</svg>
